<svg width="16" height="16" viewBox="0 0 16 16" fill="none" xmlns="http://www.w3.org/2000/svg">
<g clip-path="url(#clip0_13_158)">
<path d="M5.96609 1.54228C5.96766 1.20095 6.24372 0.924899 6.58426 0.924114H9.42977C9.59336 0.924114 9.75066 0.989392 9.86627 1.105C9.98267 1.2214 10.0479 1.3787 10.0479 1.54229V2.74566H10.9744V1.54229C10.9721 0.690529 10.2808 0.000805353 9.42978 0H6.58427C5.73172 0.000786427 5.04119 0.6921 5.04041 1.54465V2.74802H5.96688L5.96609 1.54228Z" fill="#354052" fill-opacity="0.75"/>
<path d="M9.94795 2.74566V2.84566H10.0479H10.9744H11.0744V2.74566L11.0744 1.54229L11.0744 1.54201C11.0719 0.635175 10.3359 -0.0991425 9.42987 -0.1H9.42978L6.58427 -0.1L6.58417 -0.1C5.67641 -0.0991626 4.94124 0.636917 4.94041 1.54455V1.54465V2.74802V2.84802H5.04041H5.96688H6.06695L6.06688 2.74795L6.06609 1.54249C6.06755 1.25605 6.29915 1.02483 6.58439 1.02411H9.42977C9.56679 1.02411 9.69868 1.07883 9.79556 1.17571L9.86627 1.105L9.79556 1.17571C9.8933 1.27346 9.94795 1.40536 9.94795 1.54229V2.74566Z" stroke="#354052" stroke-opacity="0.75" stroke-width="0.2"/>
<mask id="path-3-outside-1_13_158" maskUnits="userSpaceOnUse" x="1" y="1.98874" width="14" height="14" fill="black">
<rect fill="white" x="1" y="1.98874" width="14" height="14"/>
<path d="M13.5368 2.98874H2.46324C2.20764 2.98874 2 3.19636 2 3.45198C2 3.70758 2.20762 3.91522 2.46324 3.91522H3.02479V3.98993V13.1405C3.02636 14.3297 3.98981 15.2939 5.17891 15.2947H10.8329C12.022 15.2939 12.9862 14.3296 12.987 13.1405V3.98993V3.91522H13.5368C13.7924 3.91522 14 3.7076 14 3.45198C14 3.19638 13.7924 2.98874 13.5368 2.98874H13.5368ZM12.0614 13.1406C12.0614 13.8186 11.5109 14.3683 10.8329 14.3683H5.18137C4.50342 14.3683 3.95288 13.8186 3.95288 13.1406V3.98999H12.0614L12.0614 13.1406Z"/>
</mask>
<path d="M13.5368 2.98874H2.46324C2.20764 2.98874 2 3.19636 2 3.45198C2 3.70758 2.20762 3.91522 2.46324 3.91522H3.02479V3.98993V13.1405C3.02636 14.3297 3.98981 15.2939 5.17891 15.2947H10.8329C12.022 15.2939 12.9862 14.3296 12.987 13.1405V3.98993V3.91522H13.5368C13.7924 3.91522 14 3.7076 14 3.45198C14 3.19638 13.7924 2.98874 13.5368 2.98874H13.5368ZM12.0614 13.1406C12.0614 13.8186 11.5109 14.3683 10.8329 14.3683H5.18137C4.50342 14.3683 3.95288 13.8186 3.95288 13.1406V3.98999H12.0614L12.0614 13.1406Z" fill="#354052" fill-opacity="0.75"/>
<path d="M3.02479 3.91522H3.22479V3.71522H3.02479V3.91522ZM3.02479 13.1405H2.82479L2.82479 13.1408L3.02479 13.1405ZM5.17891 15.2947L5.17877 15.4947H5.17891V15.2947ZM10.8329 15.2947V15.4947H10.833L10.8329 15.2947ZM12.987 13.1405L13.187 13.1407V13.1405H12.987ZM12.987 3.91522V3.71522H12.787V3.91522H12.987ZM12.0614 13.1406H12.2614V13.1406L12.0614 13.1406ZM3.95288 3.98999V3.78999H3.75288V3.98999H3.95288ZM12.0614 3.98999L12.2614 3.98999L12.2614 3.78999H12.0614V3.98999ZM13.5368 2.78874H2.46324V3.18874H13.5368V2.78874ZM2.46324 2.78874C2.09719 2.78874 1.8 3.0859 1.8 3.45198H2.2C2.2 3.30682 2.31809 3.18874 2.46324 3.18874V2.78874ZM1.8 3.45198C1.8 3.81803 2.09716 4.11522 2.46324 4.11522V3.71522C2.31808 3.71522 2.2 3.59713 2.2 3.45198H1.8ZM2.46324 4.11522H3.02479V3.71522H2.46324V4.11522ZM2.82479 3.91522V3.98993H3.22479V3.91522H2.82479ZM2.82479 3.98993V13.1405H3.22479V3.98993H2.82479ZM2.82479 13.1408C2.82651 14.4401 3.8792 15.4938 5.17877 15.4947L5.17904 15.0947C4.10041 15.0939 3.22622 14.2193 3.22479 13.1403L2.82479 13.1408ZM5.17891 15.4947H10.8329V15.0947H5.17891V15.4947ZM10.833 15.4947C12.1325 15.4938 13.1861 14.4401 13.187 13.1407L12.787 13.1404C12.7863 14.2192 11.9115 15.094 10.8328 15.0947L10.833 15.4947ZM13.187 13.1405V3.98993H12.787V13.1405H13.187ZM13.187 3.98993V3.91522H12.787V3.98993H13.187ZM12.987 4.11522H13.5368V3.71522H12.987V4.11522ZM13.5368 4.11522C13.9028 4.11522 14.2 3.81806 14.2 3.45198H13.8C13.8 3.59713 13.6819 3.71522 13.5368 3.71522V4.11522ZM14.2 3.45198C14.2 3.08593 13.9028 2.78874 13.5368 2.78874V3.18874C13.6819 3.18874 13.8 3.30683 13.8 3.45198H14.2ZM13.5368 3.18874H13.5368V2.78874H13.5368V3.18874ZM11.8614 13.1406C11.8614 13.7079 11.4006 14.1683 10.8329 14.1683V14.5683C11.6212 14.5683 12.2614 13.9292 12.2614 13.1406H11.8614ZM10.8329 14.1683H5.18137V14.5683H10.8329V14.1683ZM5.18137 14.1683C4.61371 14.1683 4.15288 13.7079 4.15288 13.1406H3.75288C3.75288 13.9292 4.39313 14.5683 5.18137 14.5683V14.1683ZM4.15288 13.1406V3.98999H3.75288V13.1406H4.15288ZM3.95288 4.18999H12.0614V3.78999H3.95288V4.18999ZM11.8614 3.98999L11.8614 13.1406L12.2614 13.1406L12.2614 3.98999L11.8614 3.98999Z" fill="#354052" fill-opacity="0.75" mask="url(#path-3-outside-1_13_158)"/>
<path d="M9.68247 5.39294C9.42688 5.39294 9.21924 5.59978 9.21924 5.85618V12.5003C9.21924 12.7559 9.42686 12.9628 9.68247 12.9628C9.93809 12.9628 10.1457 12.756 10.1457 12.5003V5.85618C10.1457 5.73349 10.0969 5.61552 10.0104 5.52822C9.92314 5.44171 9.80517 5.39295 9.68248 5.39295L9.68247 5.39294Z" fill="#354052" fill-opacity="0.75"/>
<path d="M9.72552 5.29459L9.72386 5.29294H9.68247C9.37176 5.29294 9.11924 5.54444 9.11924 5.85618V12.5003C9.11924 12.8114 9.37185 13.0628 9.68247 13.0628C9.9931 13.0628 10.2457 12.8114 10.2457 12.5003V5.85618C10.2457 5.70699 10.1864 5.56376 10.0815 5.45783L10.0815 5.45783L10.0808 5.45719C9.98513 5.36236 9.859 5.30482 9.72552 5.29459Z" stroke="#354052" stroke-opacity="0.75" stroke-width="0.2"/>
<path d="M6.32689 5.39294C6.07129 5.39294 5.86365 5.59978 5.86365 5.85618V12.5003C5.86365 12.7559 6.07127 12.9628 6.32689 12.9628C6.58248 12.9628 6.79012 12.756 6.79012 12.5003V5.85618C6.79012 5.73349 6.74058 5.61552 6.65406 5.52822C6.56755 5.44171 6.44959 5.39295 6.32689 5.39295L6.32689 5.39294Z" fill="#354052" fill-opacity="0.75"/>
<path d="M6.36454 5.29421L6.36302 5.29294H6.32689C6.01617 5.29294 5.76365 5.54444 5.76365 5.85618V12.5003C5.76365 12.8114 6.01626 13.0628 6.32689 13.0628C6.63749 13.0628 6.89012 12.8114 6.89012 12.5003V5.85618C6.89012 5.70656 6.82976 5.56345 6.72509 5.45783L6.7251 5.45783L6.72478 5.45751C6.62834 5.36108 6.49997 5.30329 6.36454 5.29421Z" stroke="#354052" stroke-opacity="0.75" stroke-width="0.2"/>
</g>
<defs>
<clipPath id="clip0_13_158">
<rect width="16" height="16" fill="white"/>
</clipPath>
</defs>
</svg>
