<svg width="20" height="21" viewBox="0 0 20 21" fill="none" xmlns="http://www.w3.org/2000/svg">
<path fill-rule="evenodd" clip-rule="evenodd" d="M2.09495 3.87359L0.337561 2.1165C-0.128939 1.6501 -0.0957973 0.920569 0.337561 0.449556C0.77092 -0.0168643 1.56681 0.0116556 2.00478 0.449556L2.03331 0.478074C2.52021 0.942829 2.9924 1.42228 3.46513 1.90229C3.7017 2.1425 3.9384 2.38285 4.17716 2.62156L8.59083 7.03448L9.99986 8.44327L12.016 6.42677L16.2368 2.2053L17.9939 0.447913C18.4603 -0.0185871 19.1898 0.0145543 19.6608 0.447913C20.1272 0.881272 20.0987 1.67716 19.6608 2.11514L19.6323 2.14366C19.1675 2.63056 18.6881 3.10274 18.2081 3.57546C17.9679 3.81204 17.7275 4.04875 17.4888 4.28751L13.0759 8.70118L11.6671 10.1102L13.6836 12.1264L17.905 16.3471L19.6624 18.1042C20.1289 18.5697 20.0958 19.3001 19.6624 19.7711C19.2291 20.2376 18.4332 20.209 17.9952 19.7711L17.9667 19.7426C17.4798 19.2779 17.0076 18.7984 16.5349 18.3184C16.2983 18.0782 16.0616 17.8378 15.8228 17.5991L11.4092 13.1862L10.0001 11.7774L7.98398 13.7939L3.76324 18.0154L2.00614 19.7728C1.54067 20.2393 0.810219 20.2061 0.339205 19.7728C-0.127216 19.3394 -0.098696 18.5435 0.339205 18.1056L0.367722 18.077C0.832473 17.5901 1.31192 17.118 1.79192 16.6452C2.03214 16.4087 2.27249 16.172 2.51121 15.9332L6.92413 11.5195L8.33292 10.1105L6.31642 8.09433L2.09495 3.87359Z" fill="#354052" fill-opacity="0.25"/>
<mask id="mask0_13_892" style="mask-type:alpha" maskUnits="userSpaceOnUse" x="0" y="0" width="20" height="21">
<path fill-rule="evenodd" clip-rule="evenodd" d="M2.09495 3.87359L0.337561 2.1165C-0.128939 1.6501 -0.0957973 0.920569 0.337561 0.449556C0.77092 -0.0168643 1.56681 0.0116556 2.00478 0.449556L2.03331 0.478074C2.52021 0.942829 2.9924 1.42228 3.46513 1.90229C3.7017 2.1425 3.9384 2.38285 4.17716 2.62156L8.59083 7.03448L9.99986 8.44327L12.016 6.42677L16.2368 2.2053L17.9939 0.447913C18.4603 -0.0185871 19.1898 0.0145543 19.6608 0.447913C20.1272 0.881272 20.0987 1.67716 19.6608 2.11514L19.6323 2.14366C19.1675 2.63056 18.6881 3.10274 18.2081 3.57546C17.9679 3.81204 17.7275 4.04875 17.4888 4.28751L13.0759 8.70118L11.6671 10.1102L13.6836 12.1264L17.905 16.3471L19.6624 18.1042C20.1289 18.5697 20.0958 19.3001 19.6624 19.7711C19.2291 20.2376 18.4332 20.209 17.9952 19.7711L17.9667 19.7426C17.4798 19.2779 17.0076 18.7984 16.5349 18.3184C16.2983 18.0782 16.0616 17.8378 15.8228 17.5991L11.4092 13.1862L10.0001 11.7774L7.98398 13.7939L3.76324 18.0154L2.00614 19.7728C1.54067 20.2393 0.810219 20.2061 0.339205 19.7728C-0.127216 19.3394 -0.098696 18.5435 0.339205 18.1056L0.367722 18.077C0.832473 17.5901 1.31192 17.118 1.79192 16.6452C2.03214 16.4087 2.27249 16.172 2.51121 15.9332L6.92413 11.5195L8.33292 10.1105L6.31642 8.09433L2.09495 3.87359Z" fill="white"/>
</mask>
<g mask="url(#mask0_13_892)">
<rect y="0.110352" width="20" height="20" fill="#354052" fill-opacity="0.25"/>
</g>
</svg>
