<svg width="12" height="12" viewBox="0 0 12 12" fill="none" xmlns="http://www.w3.org/2000/svg">
<mask id="mask0_2_74" style="mask-type:alpha" maskUnits="userSpaceOnUse" x="0" y="0" width="12" height="12">
<path fill-rule="evenodd" clip-rule="evenodd" d="M5.1 10.2C2.28335 10.2 0 7.91665 0 5.1C0 2.28335 2.28335 0 5.1 0C7.91665 0 10.2 2.28335 10.2 5.1C10.2 6.29212 9.79098 7.38871 9.10562 8.25709L11.8243 10.9757C12.0586 11.2101 12.0586 11.59 11.8243 11.8243C11.59 12.0586 11.2101 12.0586 10.9757 11.8243L8.25709 9.10562C7.38871 9.79098 6.29212 10.2 5.1 10.2ZM7.81916 7.89573C7.11665 8.57912 6.15746 9.00001 5.09998 9.00001C2.94606 9.00001 1.19998 7.25392 1.19998 5.10001C1.19998 2.9461 2.94606 1.20001 5.09998 1.20001C7.25389 1.20001 8.99998 2.9461 8.99998 5.10001C8.99998 6.15748 8.5791 7.11665 7.89573 7.81916C7.88199 7.83064 7.86864 7.84283 7.85574 7.85574C7.84283 7.86864 7.83064 7.88199 7.81916 7.89573Z" fill="white"/>
</mask>
<g mask="url(#mask0_2_74)">
<rect width="12" height="12" fill="#354052" fill-opacity="0.25"/>
</g>
</svg>
